<?xml version="1.0" encoding="iso-8859-1"?>
<!-- Generator: Adobe Illustrator 19.0.0, SVG Export Plug-In . SVG Version: 6.00 Build 0)  -->
<svg version="1.1" id="Capa_1" xmlns="http://www.w3.org/2000/svg" xmlns:xlink="http://www.w3.org/1999/xlink" x="0px" y="0px"
	 viewBox="0 0 512 512" style="enable-background:new 0 0 512 512;" xml:space="preserve">
<rect x="216.94" y="463.52" style="fill:#C9FDFB;" width="78.12" height="38.481"/>
<path style="fill:#FFD270;" d="M401.474,239.081c0-80.343-65.131-145.474-145.474-145.474s-145.474,65.131-145.474,145.474
	c0,63.549,40.748,117.58,97.542,137.392v39.399h95.865v-39.399C360.726,356.661,401.474,302.63,401.474,239.081z"/>
<path d="M256,143.616c-5.522,0-10-4.468-10-9.991v-0.019c0-5.523,4.478-10,10-10s10,4.477,10,10S261.522,143.616,256,143.616z"/>
<path d="M183.133,325.359c-2.487,0-4.977-0.921-6.915-2.777c-12.1-11.584-21.713-25.953-27.8-41.551
	c-5.237-13.416-7.893-27.53-7.893-41.95c0-23.864,7.249-46.785,20.963-66.286c13.397-19.049,31.933-33.471,53.604-41.705
	c5.165-1.963,10.938,0.634,12.899,5.796s-0.633,10.938-5.796,12.9c-36.887,14.015-61.67,49.9-61.67,89.294
	c0,11.921,2.194,23.589,6.523,34.679c5.036,12.904,12.989,24.792,23,34.376c3.99,3.819,4.128,10.149,0.309,14.139
	C188.394,324.326,185.765,325.359,183.133,325.359z"/>
<rect x="196.52" y="415.87" style="fill:#009796;" width="118.96" height="47.648"/>
<path d="M411.475,239.081c0-85.729-69.746-155.475-155.475-155.475s-155.475,69.746-155.475,155.475
	c0,63.674,38.912,120.789,97.542,144.32v22.47h-1.546c-5.522,0-10,4.477-10,10v47.648c0,5.523,4.478,10,10,10h10.421V502
	c0,5.523,4.478,10,10,10h78.115c5.522,0,10-4.477,10-10v-28.48h10.421c5.522,0,10-4.477,10-10v-47.648c0-5.523-4.478-10-10-10
	h-1.546v-22.47C372.563,359.87,411.475,302.755,411.475,239.081z M285.058,492h-58.115v-18.48h58.115V492z M305.479,453.52h-98.957
	v-27.648h98.957V453.52z M218.067,405.872v-29.398c0-4.253-2.69-8.041-6.706-9.442c-54.332-18.954-90.836-70.373-90.836-127.95
	c0-74.701,60.773-135.475,135.475-135.475s135.475,60.773,135.475,135.475c0,57.577-36.504,108.996-90.836,127.95
	c-4.016,1.401-6.706,5.189-6.706,9.442v29.398H218.067z"/>
<path d="M256,62.448c-5.522,0-10-4.477-10-10V10c0-5.523,4.478-10,10-10s10,4.477,10,10v42.448
	C266,57.971,261.522,62.448,256,62.448z"/>
<path d="M394.3,105.59c-2.56,0-5.118-0.976-7.071-2.929c-3.905-3.905-3.905-10.237,0-14.143l20.015-20.015
	c3.906-3.905,10.236-3.905,14.143,0c3.905,3.905,3.905,10.237,0,14.143l-20.015,20.015C399.418,104.614,396.859,105.59,394.3,105.59
	z"/>
<path d="M97.686,402.205c-2.56,0-5.118-0.976-7.071-2.929c-3.905-3.905-3.905-10.237,0-14.143l20.015-20.015
	c3.906-3.905,10.236-3.905,14.143,0c3.905,3.905,3.905,10.237,0,14.143l-20.015,20.015
	C102.804,401.229,100.245,402.205,97.686,402.205z"/>
<path d="M479.891,243.89h-42.448c-5.522,0-10-4.477-10-10s4.478-10,10-10h42.448c5.522,0,10,4.477,10,10
	S485.413,243.89,479.891,243.89z"/>
<path d="M74.558,243.89H32.109c-5.522,0-10-4.477-10-10s4.478-10,10-10h42.448c5.522,0,10,4.477,10,10S80.08,243.89,74.558,243.89z"
	/>
<path d="M414.314,402.205c-2.56,0-5.118-0.976-7.071-2.929l-20.015-20.015c-3.905-3.905-3.905-10.237,0-14.143
	c3.906-3.905,10.236-3.905,14.143,0l20.015,20.015c3.905,3.905,3.905,10.237,0,14.143
	C419.433,401.229,416.874,402.205,414.314,402.205z"/>
<path d="M117.7,105.59c-2.56,0-5.118-0.976-7.071-2.929L90.614,82.647c-3.905-3.905-3.905-10.237,0-14.143
	c3.906-3.905,10.236-3.905,14.143,0l20.015,20.015c3.905,3.905,3.905,10.237,0,14.143C122.818,104.614,120.26,105.59,117.7,105.59z"
	/>
<polygon style="fill:#DD976D;" points="272.497,277.393 239.503,277.393 229.502,178.09 282.498,178.09 "/>
<path d="M272.497,287.393h-32.994c-5.135,0-9.436-3.889-9.949-8.998l-10.001-99.303c-0.284-2.812,0.637-5.613,2.532-7.709
	c1.896-2.096,4.591-3.292,7.417-3.292h52.996c2.826,0,5.521,1.196,7.417,3.292c1.896,2.097,2.816,4.897,2.532,7.709l-10.001,99.303
	C281.933,283.503,277.632,287.393,272.497,287.393z M248.547,267.393h14.906l7.987-79.303h-30.88L248.547,267.393z"/>
<rect x="239.5" y="306.26" style="fill:#DD976D;" width="32.994" height="33.444"/>
<path d="M272.497,349.703h-32.994c-5.522,0-10-4.477-10-10v-33.444c0-5.523,4.478-10,10-10h32.994c5.522,0,10,4.477,10,10v33.444
	C282.497,345.226,278.02,349.703,272.497,349.703z M249.503,329.703h12.994v-13.444h-12.994V329.703z"/>
<g>
</g>
<g>
</g>
<g>
</g>
<g>
</g>
<g>
</g>
<g>
</g>
<g>
</g>
<g>
</g>
<g>
</g>
<g>
</g>
<g>
</g>
<g>
</g>
<g>
</g>
<g>
</g>
<g>
</g>
</svg>
