<?xml version="1.0" encoding="UTF-8"?>
<!DOCTYPE svg PUBLIC "-//W3C//DTD SVG 1.1//EN" "http://www.w3.org/Graphics/SVG/1.1/DTD/svg11.dtd">
<!-- Creator: CorelDRAW 2020 (64-Bit Evaluation Version) -->
<svg xmlns="http://www.w3.org/2000/svg" xml:space="preserve" width="8.5in" height="8.5in" version="1.1" style="shape-rendering:geometricPrecision; text-rendering:geometricPrecision; image-rendering:optimizeQuality; fill-rule:evenodd; clip-rule:evenodd"
viewBox="0 0 8500 8500"
 xmlns:xlink="http://www.w3.org/1999/xlink"
 xmlns:xodm="http://www.corel.com/coreldraw/odm/2003">
 <defs>
  <style type="text/css">
   <![CDATA[
    .fil2 {fill:none}
    .fil1 {fill:#1F1B20}
    .fil0 {fill:#1F1B20;fill-rule:nonzero}
   ]]>
  </style>
 </defs>
 <g id="Layer_x0020_1">
  <metadata id="CorelCorpID_0Corel-Layer"/>
  <g id="_2058520357296">
   <path class="fil0" d="M4909.53 5274.2l0 -751.38c0,-49.81 -1.09,-99.97 -3.28,-150.48 -2.19,-50.51 -6.93,-100.67 -14.24,-150.48l310.96 0 35.04 278.13 -35.04 -16.61c17.52,-94.1 59.49,-165.35 125.92,-213.79 66.43,-48.44 141.98,-72.65 226.65,-72.65 24.82,0 47.08,2.08 66.79,6.23 19.71,4.15 36.87,9 51.46,14.53l-2.19 286.44c-54.02,-23.52 -108.04,-35.28 -162.05,-35.28 -59.86,0 -109.13,10.38 -147.81,31.13 -38.69,20.76 -68.62,50.16 -89.78,88.21 -21.17,38.06 -31.76,83.37 -31.76,135.95l0 550.04 -330.67 0zm897.85 0l0 -1052.34 330.67 0 0 1052.34 -330.67 0zm-13.14 -1546.34l356.94 0 0 294.74 -356.94 0 0 -294.74zm613.16 1994.68l0 -1199.71c0,-49.81 -1.09,-99.97 -3.28,-150.48 -2.19,-50.51 -6.93,-100.67 -14.24,-150.48l310.96 0 24.09 203.41 -13.14 0c23.36,-70.57 68.98,-126.61 136.87,-168.13 67.89,-41.51 147.08,-62.27 237.6,-62.27 96.35,0 181.4,23.18 255.12,69.54 73.72,46.36 131.76,111.39 174.09,195.11 42.34,83.72 63.51,180.24 63.51,289.55 0,109.31 -21.17,204.79 -63.51,286.44 -42.34,81.64 -100.37,144.6 -174.09,188.88 -73.72,44.28 -158.76,66.42 -255.12,66.42 -90.52,0 -169.71,-20.06 -237.6,-60.19 -67.89,-40.13 -113.51,-96.17 -136.87,-168.12l26.28 -39.44 0 699.48 -330.67 0zm584.69 -670.43c81.76,0 144.53,-25.94 188.33,-77.83 43.8,-51.89 65.7,-126.96 65.7,-225.2 0,-98.25 -22.26,-175.05 -66.79,-230.39 -44.53,-55.35 -106.94,-83.03 -187.24,-83.03 -83.21,0 -146.72,26.64 -190.52,79.91 -43.8,53.27 -65.7,129.73 -65.7,229.36 0,99.63 21.9,175.73 65.7,228.32 43.8,52.58 107.3,78.87 190.52,78.87z"/>
   <path class="fil0" d="M1281.03 5274.2l0 -1477.85 271.54 0 562.8 1218.39 -120.44 0 560.61 -1218.39 269.35 0 0 1477.85 -302.2 0 -2.19 -998.38 78.83 18.68 -435.78 979.7 -221.18 0 -444.54 -979.7 83.22 -18.68 0 998.38 -300.01 0zm1830.73 473.24l-76.65 -240.77c68.62,-12.45 125.19,-28.02 169.72,-46.7 44.53,-18.68 81.39,-41.85 110.59,-69.53 29.2,-27.68 53.29,-61.57 72.27,-101.71l85.4 -180.58 87.59 -122.46 326.29 -763.83 326.29 0 -510.24 1106.31c-45.26,96.86 -97.09,173.66 -155.48,230.39 -58.39,56.74 -124.09,99.63 -197.09,128.69 -73,29.06 -152.56,49.12 -238.7,60.19zm370.09 -394.37l-519 -1131.22 343.81 0 319.72 763.83 -144.53 367.39z"/>
   <path class="fil1" d="M2283.52 2644.26c10.98,21.68 16.91,48.18 27.35,73.72l195.26 524.1 -225.9 38.31c-4.92,2.97 -7.73,6.25 -9.07,10.11l0 14.89c2.11,10.53 7.15,24.43 10.66,43.8 12.18,67.08 -1.2,55.11 75.55,98.36 383.24,215.98 737.05,229.86 1169.05,134.46 0,34.17 -44.58,213.93 -55.14,264.23 -9.61,45.77 -19.14,84.27 -28.86,130.89 -4.92,23.57 -9.03,44.49 -13.7,63.2 -5.4,21.62 -13.06,45.92 -13.6,69.17 24,-1.89 53.44,-8.53 78.79,-13.23 24.5,-4.55 54.89,-8.28 84.59,-13.61 42.34,-7.59 217.65,-27.93 243.54,-50.5l52.29 -44.22c19.81,-18.28 33.91,-26.45 52.52,-44 19.57,-18.44 32.93,-25.57 52.5,-44.01l520.51 -432.68c22.72,-16.65 32.35,-28.66 52.75,-43.78 39.94,-29.62 184.05,-41.01 241.99,-51.96 179.73,-33.97 460.06,-53.98 577.19,-197.27 37.14,-45.44 65.37,-66.17 65.37,-143.18 0,-131.76 -176.11,-205.13 -321.55,-205.13 -189.22,0 -334.2,35.6 -522.03,67.85l-1351.59 225.19 -76.81 -67.86c-19.5,-14.3 -22.25,-17.91 -39.02,-33.35 -16.07,-14.79 -24.31,-17.23 -40.38,-32.06l-474.52 -394.22c-37.93,0 -276.64,48.72 -327.73,52.75z"/>
   <polygon class="fil1" points="4738.28,5274.2 4439,5274.2 4439,3380.48 4738.28,3380.48 "/>
   <line class="fil2" x1="4738.28" y1="5274.2" x2="4439" y2= "5274.2" />
  </g>
 </g>
</svg>
