<?xml version="1.0" encoding="iso-8859-1"?>
<!-- Generator: Adobe Illustrator 19.0.0, SVG Export Plug-In . SVG Version: 6.00 Build 0)  -->
<svg version="1.1" id="Capa_1" xmlns="http://www.w3.org/2000/svg" xmlns:xlink="http://www.w3.org/1999/xlink" x="0px" y="0px"
	 viewBox="0 0 512.001 512.001" style="enable-background:new 0 0 512.001 512.001;" xml:space="preserve">
<ellipse transform="matrix(-0.7071 -0.7071 0.7071 -0.7071 250.9913 601.889)" style="fill:#60D2CE;" cx="250.151" cy="248.963" rx="309.423" ry="60.186"/>
<path style="fill:#787485;" d="M307.746,383.086c-8.103-6.698-16.363-13.712-24.742-21.012l80.255-80.255
	c7.301,8.379,14.314,16.639,21.012,24.742L307.746,383.086z"/>
<g>
	<path style="fill:#38C7C2;" d="M31.358,30.172c3.303-3.303,8.453-4.583,15.201-4.009c3.513,41.266,76.395,142.295,180.25,246.151
		c25.592,25.592,51.009,49.293,75.405,70.549l-19.21,19.21c8.379,7.301-41.024-36.168-75.405-70.549
		C86.762,170.687,7.856,53.675,31.358,30.172z"/>
	<path style="fill:#38C7C2;" d="M472.96,452.565c0.574,6.748-0.706,11.898-4.009,15.201c-16.815,16.815-81.501-18.799-161.205-84.68
		l19.21-19.21C391.004,416.817,445.355,450.215,472.96,452.565z"/>
</g>
<path style="fill:#696578;" d="M302.214,342.865c8.379,7.301,16.639,14.314,24.742,21.012l-19.21,19.21l0,0
	c-8.103-6.698-16.363-13.712-24.741-21.012L302.214,342.865z"/>
<path style="fill:#FBD879;" d="M19.128,17.943C30.578,6.494,51.481-6.322,121.919,61.752l-58.982,58.982
	C-13.225,50.296,7.679,29.393,19.128,17.943z"/>
<path style="fill:#FACF57;" d="M19.128,17.943c2.296-2.296,4.975-4.646,8.355-6.389c-7.576,13.877-5.943,38.784,52.136,92.497
	l-16.682,16.682C-13.225,50.296,7.679,29.393,19.128,17.943z"/>
<path style="fill:#FBD879;" d="M504.423,503.239c0,0-84.461-38.419-133.894-72.357l61.538-61.538
	C466.004,418.778,504.423,503.239,504.423,503.239z"/>
<path style="fill:#FACF57;" d="M388.703,412.71c29.014,19.918,70.088,41.378,99.075,55.71
	c10.087,20.402,16.647,34.819,16.647,34.819s-84.461-38.419-133.894-72.357L388.703,412.71z"/>
<path style="fill:#787485;" d="M450.709,477.081l27.557-27.557c15.285,29.813,26.157,53.714,26.157,53.714
	S480.524,492.366,450.709,477.081z"/>
<path d="M511.326,500.098c-1.58-3.474-39.085-85.633-73.007-135.046c-0.146-0.211-0.303-0.413-0.468-0.607
	c-0.127-0.234-0.267-0.464-0.422-0.689c-33.526-48.582-83.017-106.366-139.357-162.705c-24.457-24.457-49.257-47.707-73.712-69.101
	c-3.151-2.757-7.942-2.438-10.7,0.714c-2.758,3.152-2.438,7.943,0.714,10.7c24.203,21.174,48.755,44.19,72.975,68.41
	c23.258,23.258,45.315,46.744,65.532,69.699l-70.224,70.224c-22.942-20.207-46.423-42.262-69.696-65.535
	C155.37,228.57,105.732,170.34,72.711,121.684l50.163-50.163c18.838,12.79,39.367,28.269,61.089,46.069
	c3.418,2.801,8.637,2.015,11.101-1.64c2.157-3.199,1.491-7.648-1.489-10.091c-23.572-19.316-45.806-35.974-66.081-49.511
	c-0.218-0.146-0.442-0.279-0.668-0.399C56.684-11.721,30.31-3.961,13.766,12.582C8.51,17.838-0.288,26.635,0.007,41.755
	c0.399,20.454,17.83,46.75,53.223,80.274c-7.003,7.445-17.42,21.822-17.42,41.503c0,44.266,56.341,83.19,98.718,108.616
	c7.322,4.393,15.071,12.522,14.785,19.987c-0.263,6.844-7.907,12.075-14.275,15.259c-3.458,1.729-5.075,5.925-3.676,9.527
	c1.594,4.104,6.515,6.01,10.458,4.037c18.17-9.085,22.345-20.371,22.646-28.241c0.562-14.64-11.573-27.235-22.137-33.573
	c-22.596-13.557-91.356-54.813-91.356-95.612c0-13.221,6.698-23.51,11.837-29.457c33.52,48.625,82.693,106.082,139.425,162.813
	c56.897,56.897,115.139,106.704,164,140.247c0.004,0.003,0.009,0.005,0.013,0.008c49.414,33.921,131.561,71.419,135.034,72.999
	C507.539,512.986,514.16,506.328,511.326,500.098z M15.17,41.46c-0.169-8.666,4.655-13.489,9.32-18.155
	c2.686-2.686,6.781-6.782,14.905-6.782c12.09,0,33.104,9.072,71.672,45.357l-48.298,48.298C23.983,73.242,15.385,52.48,15.17,41.46z
	 M362.86,292.942c3.794,4.41,7.524,8.805,11.159,13.148l-66.742,66.741c-4.339-3.631-8.733-7.359-13.148-11.158L362.86,292.942z
	 M383.719,317.836c14.33,17.598,27.278,34.602,38.506,50.626l-52.578,52.578c-16.03-11.232-33.032-24.175-50.628-38.503
	L383.719,317.836z M430.894,381.241c13.114,20.156,26.659,44.786,38.085,66.847l-19.705,19.705
	c-22.059-11.424-46.685-24.967-66.846-38.086L430.894,381.241z M463.472,475.042l12.754-12.754
	c4.768,9.47,8.972,18.072,12.354,25.107C481.545,484.014,472.943,479.81,463.472,475.042z"/>
<g>
</g>
<g>
</g>
<g>
</g>
<g>
</g>
<g>
</g>
<g>
</g>
<g>
</g>
<g>
</g>
<g>
</g>
<g>
</g>
<g>
</g>
<g>
</g>
<g>
</g>
<g>
</g>
<g>
</g>
</svg>
